<?xml version="1.0" encoding="utf-8"?>
<!-- Generator: Adobe Illustrator 15.1.0, SVG Export Plug-In . SVG Version: 6.00 Build 0)  -->
<!DOCTYPE svg PUBLIC "-//W3C//DTD SVG 1.1//EN" "http://www.w3.org/Graphics/SVG/1.1/DTD/svg11.dtd">
<svg version="1.1" id="Layer_1" xmlns="http://www.w3.org/2000/svg" xmlns:xlink="http://www.w3.org/1999/xlink" x="0px" y="0px"
	 width="28px" height="28px" viewBox="0 0 28 28" enable-background="new 0 0 28 28" xml:space="preserve">
<g>
	<defs>
		<rect id="SVGID_1_" width="28" height="28"/>
	</defs>
	<clipPath id="SVGID_2_">
		<use xlink:href="#SVGID_1_"  overflow="visible"/>
	</clipPath>
	<g clip-path="url(#SVGID_2_)">
		<defs>
			<rect id="SVGID_3_" width="28" height="28"/>
		</defs>
		<clipPath id="SVGID_4_">
			<use xlink:href="#SVGID_3_"  overflow="visible"/>
		</clipPath>
		<defs>
			<filter id="Adobe_OpacityMaskFilter" filterUnits="userSpaceOnUse" x="0" y="0" width="28" height="28">
				<feFlood  style="flood-color:white;flood-opacity:1" result="back"/>
				<feBlend  in="SourceGraphic" in2="back" mode="normal"/>
			</filter>
		</defs>
		<mask maskUnits="userSpaceOnUse" x="0" y="0" width="28" height="28" id="SVGID_5_">
			<g filter="url(#Adobe_OpacityMaskFilter)">
				<g enable-background="new    ">
				</g>
			</g>
		</mask>
		<g clip-path="url(#SVGID_4_)" mask="url(#SVGID_5_)">
			<g>
				<defs>
					<rect id="SVGID_6_" width="28" height="28"/>
				</defs>
				<clipPath id="SVGID_7_">
					<use xlink:href="#SVGID_6_"  overflow="visible"/>
				</clipPath>
				<g clip-path="url(#SVGID_7_)">
					<defs>
						<path id="SVGID_8_" d="M3.184,28h21.632C26.575,28,28,26.575,28,24.816V3.184C28,1.425,26.575,0,24.816,0H3.184
							C1.425,0,0,1.425,0,3.184v21.632C0,26.575,1.425,28,3.184,28"/>
					</defs>
					<clipPath id="SVGID_9_">
						<use xlink:href="#SVGID_8_"  overflow="visible"/>
					</clipPath>
					<path clip-path="url(#SVGID_9_)" fill="#FFE600" d="M28,25.758C28,26.997,26.996,28,25.757,28H2.243
						C1.006,28,0,26.997,0,25.758V2.243C0,1.005,1.006,0,2.243,0h23.514C26.996,0,28,1.005,28,2.243V25.758z"/>
				</g>
			</g>
		</g>
		<path clip-path="url(#SVGID_4_)" fill="#392020" d="M14.288,4.477c-5.932,0-10.741,3.797-10.741,8.484
			c0,3.014,1.993,5.653,4.985,7.163L7.52,23.903c-0.038,0.113-0.008,0.238,0.077,0.322c0.058,0.059,0.135,0.09,0.219,0.09
			c0.065,0,0.129-0.027,0.187-0.071l4.353-2.94c0.63,0.091,1.276,0.143,1.933,0.143c5.932,0,10.742-3.799,10.742-8.485
			C25.03,8.274,20.22,4.477,14.288,4.477"/>
	</g>
</g>
</svg>
