<?xml version="1.0" encoding="utf-8"?>
<!-- Generator: Adobe Illustrator 15.1.0, SVG Export Plug-In . SVG Version: 6.00 Build 0)  -->
<!DOCTYPE svg PUBLIC "-//W3C//DTD SVG 1.1//EN" "http://www.w3.org/Graphics/SVG/1.1/DTD/svg11.dtd">
<svg version="1.1" id="Layer_1" xmlns="http://www.w3.org/2000/svg" xmlns:xlink="http://www.w3.org/1999/xlink" x="0px" y="0px"
	 width="57px" height="55.333px" viewBox="0 0 57 55.333" enable-background="new 0 0 57 55.333" xml:space="preserve">
<g opacity="0.25">
	<g>
		<defs>
			<path id="SVGID_1_" d="M97.668,40.767"/>
		</defs>
		<clipPath id="SVGID_2_">
			<use xlink:href="#SVGID_1_"  overflow="visible"/>
		</clipPath>
		<g clip-path="url(#SVGID_2_)">
			<defs>
				<path id="SVGID_3_" d="M97.668,40.767"/>
			</defs>
			<clipPath id="SVGID_4_">
				<use xlink:href="#SVGID_3_"  overflow="visible"/>
			</clipPath>
		</g>
	</g>
</g>
<g opacity="0.25">
	<g>
		<defs>
			<line id="SVGID_5_" x1="-117.372" y1="45.327" x2="-44.412" y2="45.327"/>
		</defs>
		<clipPath id="SVGID_6_">
			<use xlink:href="#SVGID_5_"  overflow="visible"/>
		</clipPath>
		<g clip-path="url(#SVGID_6_)">
			<defs>
				<line id="SVGID_7_" x1="-117.372" y1="45.326" x2="-44.412" y2="45.326"/>
			</defs>
			<clipPath id="SVGID_8_">
				<use xlink:href="#SVGID_7_"  overflow="visible"/>
			</clipPath>
		</g>
	</g>
</g>
<path fill="#FFFFFF" d="M-59.389,39.486"/>
<path fill="#FFFFFF" d="M-59.389,39.486h-46.087"/>
<path fill="#FFFFFF" d="M42.841,46.033H6.234c-0.156,0-0.283-0.127-0.283-0.283V1.783c0-0.156,0.127-0.283,0.283-0.283h36.606
	c0.156,0,0.283,0.127,0.283,0.283V45.75C43.124,45.906,42.997,46.033,42.841,46.033"/>
<path fill="none" stroke="#F92795" stroke-width="2" stroke-miterlimit="10" d="M42.841,46.033H6.234
	c-0.156,0-0.283-0.127-0.283-0.283V1.783c0-0.156,0.127-0.283,0.283-0.283h36.606c0.156,0,0.283,0.127,0.283,0.283V45.75
	C43.124,45.906,42.997,46.033,42.841,46.033z"/>
<path fill="#FFFFFF" d="M50.767,53.794H14.161c-0.156,0-0.283-0.127-0.283-0.282V9.544c0-0.155,0.127-0.282,0.283-0.282h36.605
	c0.157,0,0.283,0.127,0.283,0.282v43.968C51.05,53.667,50.924,53.794,50.767,53.794"/>
<path fill="none" stroke="#F92795" stroke-width="2" stroke-miterlimit="10" d="M50.767,53.794H14.161
	c-0.156,0-0.283-0.127-0.283-0.282V9.544c0-0.155,0.127-0.282,0.283-0.282h36.605c0.157,0,0.283,0.127,0.283,0.282v43.968
	C51.05,53.667,50.924,53.794,50.767,53.794z"/>
<path fill="#FFFFFF" d="M33.657,29.121H19.095c-0.156,0-0.283-0.127-0.283-0.284V15.131c0-0.157,0.127-0.284,0.283-0.284h14.563
	c0.158,0,0.283,0.127,0.283,0.284v13.706C33.94,28.994,33.815,29.121,33.657,29.121"/>
<path fill="none" stroke="#F92795" stroke-width="2" stroke-miterlimit="10" d="M33.657,29.121H19.095
	c-0.156,0-0.283-0.127-0.283-0.284V15.131c0-0.157,0.127-0.284,0.283-0.284h14.563c0.158,0,0.283,0.127,0.283,0.284v13.706
	C33.94,28.994,33.815,29.121,33.657,29.121z"/>
<line fill="none" stroke="#F92795" stroke-width="2" stroke-linecap="round" stroke-miterlimit="10" x1="18.812" y1="34.665" x2="45.833" y2="34.665"/>
<line fill="none" stroke="#F92795" stroke-width="2" stroke-linecap="round" stroke-miterlimit="10" x1="37.802" y1="29.121" x2="45.833" y2="29.121"/>
<line fill="none" stroke="#F92795" stroke-width="2" stroke-linecap="round" stroke-miterlimit="10" x1="37.802" y1="23.767" x2="45.833" y2="23.767"/>
<line fill="none" stroke="#F92795" stroke-width="2" stroke-linecap="round" stroke-miterlimit="10" x1="37.802" y1="18.411" x2="45.833" y2="18.411"/>
<line fill="none" stroke="#F92795" stroke-width="2" stroke-linecap="round" stroke-miterlimit="10" x1="18.812" y1="40.21" x2="45.833" y2="40.21"/>
<line fill="none" stroke="#F92795" stroke-width="2" stroke-linecap="round" stroke-miterlimit="10" x1="18.812" y1="45.755" x2="45.833" y2="45.755"/>
</svg>
